<?xml version="1.0" encoding="utf-8"?>
<!-- Generator: Adobe Illustrator 16.0.3, SVG Export Plug-In . SVG Version: 6.00 Build 0)  -->
<!DOCTYPE svg PUBLIC "-//W3C//DTD SVG 1.1//EN" "http://www.w3.org/Graphics/SVG/1.1/DTD/svg11.dtd">
<svg version="1.1" id="Capa_1" xmlns="http://www.w3.org/2000/svg" xmlns:xlink="http://www.w3.org/1999/xlink" x="0px" y="0px"
	 width="131.029px" height="130.031px" viewBox="0 0 131.029 130.031" enable-background="new 0 0 131.029 130.031"
	 xml:space="preserve">
<circle stroke="#000000" stroke-miterlimit="10" cx="66.017" cy="65.019" r="65.515"/>
<circle fill="#ED1C16" stroke="#000000" stroke-miterlimit="10" cx="66.016" cy="65.019" r="19.848"/>
<g>
	<line x1="86.863" y1="65.02" x2="131.532" y2="65.02"/>
	<g>
		<line fill="none" stroke="#FFFFFF" stroke-width="18" stroke-miterlimit="10" x1="86.863" y1="65.02" x2="99.241" y2="65.02"/>
		<g>
			<polygon fill="#FFFFFF" points="92.676,87.458 131.532,65.02 92.676,42.581 			"/>
		</g>
	</g>
</g>
<g>
	<line x1="0.496" y1="65.02" x2="45.166" y2="65.02"/>
	<g>
		<line fill="none" stroke="#FFFFFF" stroke-width="18" stroke-miterlimit="10" x1="32.787" y1="65.02" x2="45.166" y2="65.02"/>
		<g>
			<polygon fill="#FFFFFF" points="39.353,87.458 0.496,65.02 39.353,42.581 			"/>
		</g>
	</g>
</g>
<g>
	<line x1="66.016" y1="85.863" x2="66.016" y2="130.533"/>
	<g>
		<line fill="none" stroke="#FFFFFF" stroke-width="18" stroke-miterlimit="10" x1="66.016" y1="85.863" x2="66.016" y2="98.242"/>
		<g>
			<polygon fill="#FFFFFF" points="43.577,91.676 66.016,130.533 88.454,91.676 			"/>
		</g>
	</g>
</g>
<g>
	<line x1="66.016" y1="-0.503" x2="66.016" y2="44.167"/>
	<g>
		<line fill="none" stroke="#FFFFFF" stroke-width="18" stroke-miterlimit="10" x1="66.016" y1="31.788" x2="66.016" y2="44.167"/>
		<g>
			<polygon fill="#FFFFFF" points="43.577,38.354 66.016,-0.503 88.454,38.354 			"/>
		</g>
	</g>
</g>
</svg>
