<?xml version="1.0" encoding="utf-8"?>
<!-- Generator: Adobe Illustrator 16.0.3, SVG Export Plug-In . SVG Version: 6.00 Build 0)  -->
<!DOCTYPE svg PUBLIC "-//W3C//DTD SVG 1.1//EN" "http://www.w3.org/Graphics/SVG/1.1/DTD/svg11.dtd">
<svg version="1.1" id="Capa_1" xmlns="http://www.w3.org/2000/svg" xmlns:xlink="http://www.w3.org/1999/xlink" x="0px" y="0px"
	 width="131.03px" height="130.03px" viewBox="0 0 131.03 130.03" enable-background="new 0 0 131.03 130.03" xml:space="preserve">
<circle fill-rule="evenodd" clip-rule="evenodd" fill="#FDFDFD" stroke="#000000" stroke-width="5" cx="63.5" cy="65.015" r="63.5"/>
<circle fill-rule="evenodd" clip-rule="evenodd" fill="none" cx="64.515" cy="65.015" r="45.887"/>
<path d="M23.914,62.108h1.81v1.81h-1.81V62.108z M23.914,64.241h1.81v1.81h-1.81V64.241z M23.914,70.671h1.81v1.81h-1.81V70.671z
	 M26.046,59.975h1.81v1.81h-1.81V59.975z M26.046,62.108h1.81v1.81h-1.81V62.108z M26.046,64.241h1.81v1.81h-1.81V64.241z
	 M26.046,66.374h1.81v1.81h-1.81V66.374z M26.046,70.671h1.81v1.81h-1.81V70.671z M26.046,72.804h1.81v1.81h-1.81V72.804z
	 M28.179,59.975h1.81v1.81h-1.81V59.975z M28.179,66.374h1.81v1.81h-1.81V66.374z M28.179,72.804h1.81v1.81h-1.81V72.804z
	 M30.312,59.975h1.81v1.81h-1.81V59.975z M30.312,66.374h1.81v1.81h-1.81V66.374z M30.312,72.804h1.81v1.81h-1.81V72.804z
	 M32.477,59.975h1.81v1.81h-1.81V59.975z M32.477,66.374h1.81v1.81h-1.81V66.374z M32.477,72.804h1.81v1.81h-1.81V72.804z
	 M34.61,59.975h1.81v1.81h-1.81V59.975z M34.61,62.108h1.81v1.81h-1.81V62.108z M34.61,66.374h1.81v1.81h-1.81V66.374z
	 M34.61,68.539h1.81v1.81h-1.81V68.539z M34.61,70.671h1.81v1.81h-1.81V70.671z M34.61,72.804h1.81v1.81h-1.81V72.804z
	 M36.743,62.108h1.81v1.81h-1.81V62.108z M36.743,68.539h1.81v1.81h-1.81V68.539z M36.743,70.671h1.81v1.81h-1.81V70.671z"/>
<path d="M40.717,66.374h1.81v1.81h-1.81V66.374z M40.717,68.539h1.81v1.81h-1.81V68.539z M40.717,70.671h1.81v1.81h-1.81V70.671z
	 M42.85,64.241h1.81v1.81h-1.81V64.241z M42.85,66.374h1.81v1.81h-1.81V66.374z M42.85,68.539h1.81v1.81h-1.81V68.539z
	 M42.85,70.671h1.81v1.81h-1.81V70.671z M42.85,72.804h1.81v1.81h-1.81V72.804z M44.983,64.241h1.81v1.81h-1.81V64.241z
	 M44.983,68.539h1.81v1.81h-1.81V68.539z M44.983,72.804h1.81v1.81h-1.81V72.804z M47.116,64.241h1.81v1.81h-1.81V64.241z
	 M47.116,68.539h1.81v1.81h-1.81V68.539z M47.116,72.804h1.81v1.81h-1.81V72.804z M49.281,64.241h1.81v1.81h-1.81V64.241z
	 M49.281,68.539h1.81v1.81h-1.81V68.539z M49.281,72.804h1.81v1.81h-1.81V72.804z M51.414,64.241h1.81v1.81h-1.81V64.241z
	 M51.414,66.374h1.81v1.81h-1.81V66.374z M51.414,68.539h1.81v1.81h-1.81V68.539z M51.414,72.804h1.81v1.81h-1.81V72.804z
	 M53.546,66.374h1.81v1.81h-1.81V66.374z M53.546,68.539h1.81v1.81h-1.81V68.539z"/>
<path d="M57.521,59.975h1.81v1.81h-1.81V59.975z M57.521,62.108h1.81v1.81h-1.81V62.108z M57.521,64.241h1.81v1.81h-1.81V64.241z
	 M57.521,66.374h1.81v1.81h-1.81V66.374z M57.521,68.539h1.81v1.81h-1.81V68.539z M57.521,70.671h1.81v1.81h-1.81V70.671z
	 M57.521,72.804h1.81v1.81h-1.81V72.804z M59.654,59.975h1.81v1.81h-1.81V59.975z M59.654,62.108h1.81v1.81h-1.81V62.108z
	 M59.654,64.241h1.81v1.81h-1.81V64.241z M59.654,66.374h1.81v1.81h-1.81V66.374z M59.654,68.539h1.81v1.81h-1.81V68.539z
	 M59.654,70.671h1.81v1.81h-1.81V70.671z M59.654,72.804h1.81v1.81h-1.81V72.804z"/>
<path d="M63.596,66.374h1.81v1.81h-1.81V66.374z M63.596,68.539h1.81v1.81h-1.81V68.539z M63.596,70.671h1.81v1.81h-1.81V70.671z
	 M65.729,64.241h1.81v1.81h-1.81V64.241z M65.729,66.374h1.81v1.81h-1.81V66.374z M65.729,68.539h1.81v1.81h-1.81V68.539z
	 M65.729,70.671h1.81v1.81h-1.81V70.671z M65.729,72.804h1.81v1.81h-1.81V72.804z M67.861,64.241h1.81v1.81h-1.81V64.241z
	 M67.861,68.539h1.81v1.81h-1.81V68.539z M67.861,72.804h1.81v1.81h-1.81V72.804z M69.994,64.241h1.81v1.81h-1.81V64.241z
	 M69.994,68.539h1.81v1.81h-1.81V68.539z M69.994,72.804h1.81v1.81h-1.81V72.804z M72.159,64.241h1.81v1.81h-1.81V64.241z
	 M72.159,68.539h1.81v1.81h-1.81V68.539z M72.159,72.804h1.81v1.81h-1.81V72.804z M74.292,64.241h1.81v1.81h-1.81V64.241z
	 M74.292,66.374h1.81v1.81h-1.81V66.374z M74.292,68.539h1.81v1.81h-1.81V68.539z M74.292,72.804h1.81v1.81h-1.81V72.804z
	 M76.425,66.374h1.81v1.81h-1.81V66.374z M76.425,68.539h1.81v1.81h-1.81V68.539z"/>
<path d="M80.399,66.374h1.81v1.81h-1.81V66.374z M80.399,68.539h1.81v1.81h-1.81V68.539z M80.399,70.671h1.81v1.81h-1.81V70.671z
	 M82.532,64.241h1.81v1.81h-1.81V64.241z M82.532,66.374h1.81v1.81h-1.81V66.374z M82.532,68.539h1.81v1.81h-1.81V68.539z
	 M82.532,70.671h1.81v1.81h-1.81V70.671z M82.532,72.804h1.81v1.81h-1.81V72.804z M84.665,64.241h1.81v1.81h-1.81V64.241z
	 M84.665,72.804h1.81v1.81h-1.81V72.804z M86.797,64.241h1.81v1.81h-1.81V64.241z M86.797,72.804h1.81v1.81h-1.81V72.804z
	 M88.962,64.241h1.81v1.81h-1.81V64.241z M88.962,72.804h1.81v1.81h-1.81V72.804z M91.095,64.241h1.81v1.81h-1.81V64.241z
	 M91.095,66.374h1.81v1.81h-1.81V66.374z M91.095,70.671h1.81v1.81h-1.81V70.671z M91.095,72.804h1.81v1.81h-1.81V72.804z
	 M93.228,66.374h1.81v1.81h-1.81V66.374z M93.228,70.671h1.81v1.81h-1.81V70.671z"/>
<path d="M97.203,64.241h1.81v1.81h-1.81V64.241z M99.335,59.975h1.81v1.81h-1.81V59.975z M99.335,62.108h1.81v1.81h-1.81V62.108z
	 M99.335,64.241h1.81v1.81h-1.81V64.241z M99.335,66.374h1.81v1.81h-1.81V66.374z M99.335,68.539h1.81v1.81h-1.81V68.539z
	 M99.335,70.671h1.81v1.81h-1.81V70.671z M101.468,59.975h1.81v1.81h-1.81V59.975z M101.468,62.108h1.81v1.81h-1.81V62.108z
	 M101.468,64.241h1.81v1.81h-1.81V64.241z M101.468,66.374h1.81v1.81h-1.81V66.374z M101.468,68.539h1.81v1.81h-1.81V68.539z
	 M101.468,70.671h1.81v1.81h-1.81V70.671z M101.468,72.804h1.81v1.81h-1.81V72.804z M103.601,64.241h1.81v1.81h-1.81V64.241z
	 M103.601,72.804h1.81v1.81h-1.81V72.804z M105.766,72.804h1.81v1.81h-1.81V72.804z"/>
<circle fill-rule="evenodd" clip-rule="evenodd" fill="none" stroke="#000000" stroke-width="2" cx="64.515" cy="65.015" r="45.887"/>
</svg>
